<svg xmlns="http://www.w3.org/2000/svg" width="2145.983" height="491.277" viewBox="0 0 1609.488 368.458"><g data-name="layer 1" fill="#1a1a18" fill-rule="evenodd"><path d="m486.48 149.76 66.568 113.638-57.593 102.64 80.569.576 19.939-28.138 15.638 27.561 83.94-.568-58.373-102.878 67.352-112.259v215.705h73.009V1l-72.762.145L593.38 189.75 485.5 1h-73.008v365.037H485.5zM1125.971 216.705c-6.036-6.765-59.333-95.867-63.437-106.214-8.09-20.39 42.907-86.535 53.482-109.491l-82.905.04-18.5 26.236L999.866 1l-83.983.596 58.565 99.61-67.498 115.499V1h-73.008v365.037c63.762 0 66.98 7.922 79.268-13.651 21.957-38.564 85.303-155.337 103.25-175.503 13.186 14.984 82.306 140.188 102.813 175.942 12.056 21.02 22.557 13.212 79.703 13.212V1h-73.005zM143.693 220.02c4.331-17.872 41.456-102.815 50.04-115.773l69.242 162.71zm-33.182 73.01c33.436 7.96 91.86 33.064 126.101 46.457 83.427 32.637 56.43 27.781 147.228 26.033L229.976 1h-69.688C139.632 24.991 32.665 304.682 1 366.037l79.55-.043zM1245.437 140.377h73.005V70.688c11.347 4.582 62.296 1.13 81.27 2.12l35.813-.58c5.46 19.23-122.998 248.551-133.675 293.81h76.325L1555.037 1.47l-309.6-.47zM1555.277 364.231c6.023-3.741 8.998-7.419 14.417-12.092 88.425-76.27-.092-109.24-13.643-67.557l-14.612-13.824c-17.325-11.898-47.657.445-40.27 33.6 5.112 22.949 37.09 55.05 54.108 59.873"/></g></svg>